<?xml version="1.0" encoding="UTF-8"?>
<svg id="SVGRoot" xmlns="http://www.w3.org/2000/svg" viewBox="0 0 264.57 191.8">
  <path d="M33.69,89.04l-2.46,.71c.05,.97,.1,1.86,.14,2.64,.23,.04,.46,.08,.68,.12,2.19,.45,4.11,1.26,5.97,2.03,1.34,.56,2.73,1.14,4.2,1.58,2.29,.68,5.12,1.32,8.17,1.89,.03-.13,.05-.26,.09-.39,.39-1.62,1.21-3.63,2.18-5.7-.72-3.18-.57-5.22-.08-7.25-1.31,.35-2.65,.68-4.01,.84l-5.26,3.53h-9.63Z"/>
  <path d="M67.15,178.84c-.18-.04-.37-.08-.56-.12-1.64-.35-3.51-.74-4.67-.33-.61,.22-1.21,.43-1.8,.64h.31s0-.01,0-.02l2.37-.09h.01s0,.07,0,.11h4.45s0-.01,0-.02l.63-.02c-.25-.05-.5-.1-.74-.15Z"/>
  <path d="M27.21,45.61h-.01c2.71-8.17,13.09-31.53,36.13-36.71-19.3,8.15-29.2,21.85-34.25,37.32-3.42,10.46-4.57,21.74-4.8,32.56l4.96,1.23c-.02-9.82,.66-22.17,3.58-31.55,3.37-10.85,10.3-21.24,19.01-28.51,5.3-4.42,13.09-8.27,22.53-11.13,7.02-2.13,14.65-3.61,21.86-4.28-7.81-2.76-17-3.53-26.29-2.16-10.8,1.6-21.02,6-28.79,12.39-9.86,8.12-16.5,18.21-20.9,31.77-3.23,9.96-3.91,23.43-3.85,33.72l5.93-1.47c.21-10.96,1.35-22.44,4.91-33.18Z"/>
  <path d="M16.89,93.32c.5-.17,1.03-.31,1.58-.47l.45-.13c1.32-.37,2.73-.61,4.2-.75l-6.23-1.79v3.13Z"/>
  <path d="M23.66,91.92c1.77-.13,3.62-.08,5.49,.13v-1.71l-5.49,1.58Z"/>
  <path d="M68.81,130.05s0-.04,.01-.07c-.08-.42-.15-.83-.22-1.22-.06-.35-.12-.69-.18-1.01-1.41,1.26-2.86,2.47-4.34,3.11l-.74,.32-.38-.71c-2.65-5-3.58-10.57-2.78-16.3-.27,.1-.52,.19-.76,.27l-.63,.22-.38-.55c-1.87-2.69-1.97-5.34-2.08-7.91v-.03c-1.99,1.29-3.96,1.58-5.69,1.68l-.91,.05-.02-.91c0-.19-.07-3.92,.4-7.27-3.1-.59-6-1.24-8.36-1.94-1.57-.47-2.99-1.07-4.38-1.65-1.86-.78-3.62-1.52-5.65-1.94-4.32-.89-8.7-.83-12.32,.19l-.46,.13c-1.88,.52-3.24,.9-4.11,2.13-.58,.82-.57,2.17,0,3,.48,.69,2.26,1.25,3.37,1.43l.65,.11v.08c1.57-.02,3.26-.07,4.4-.18,.58-.06,1.27-.24,2.01-.44,1.65-.45,3.52-.95,5.19-.3,1.5,.59,2.67,2.97,2.89,3.45l.23,.5-.35,.42c-.13,.15-.89,1.06-1.82,1.87,1.02,.94,1.77,2.44,1.94,2.81l.23,.5-.35,.42c-.15,.17-1.1,1.31-2.2,2.18,.76,.9,1.3,1.99,1.44,2.3l.23,.5-.35,.42c-.21,.25-2.09,2.5-3.67,3.07-.22,.08-.45,.14-.68,.21,.47,.21,.91,.39,1.32,.52,1.74,.57,3.68,.83,5.62,.76,3.67-.14,10.9-2.34,10.97-2.36l.59-.18h.01s.37,.49,.37,.49c11.27,15.19,15.24,17.45,19.08,19.64,1.61,.92,3.27,1.87,5.42,3.69l.04-.43c-2.13-3.41-3.09-7.28-2.6-11.07Z"/>
  <polygon points="72.76 145.19 72.76 145.18 72.74 145.16 72.74 145.19 72.76 145.19"/>
  <path d="M28.09,117.12c.72-.26,1.81-1.3,2.54-2.11-.31-.56-.72-1.19-1.12-1.62-2.31,.82-5.23,1.36-8,1.36h.01c-2.16-.01-4.24-.33-5.85-1.09-.26,.45-.46,.9-.46,1.07,0,.71,.25,1.67,.89,2.06,3.31,1.99,8.54,1.57,11.99,.33Z"/>
  <polygon points="21.96 119.94 21.96 119.94 21.95 119.94 21.96 119.94"/>
  <path d="M15.89,111.79c3.02,1.81,9.02,1.39,13.08-.07,.71-.26,1.81-1.3,2.54-2.11-.43-.79-1.08-1.72-1.59-2-.12,.06-.25,.13-.37,.17-2.32,.83-5.26,1.37-8.04,1.37h.01c-1.52-.01-3-.17-4.3-.53-.72,0-1.34,0-1.74,0h0c-.27,.46-.48,.94-.48,1.11,0,.71,.25,1.67,.89,2.06Z"/>
  <path d="M15,104.13c0,.71,.25,1.67,.89,2.06,3.02,1.81,9.02,1.39,13.08-.07,.72-.26,1.81-1.3,2.54-2.11-.46-.84-1.17-1.85-1.69-2.06-1.14-.44-2.64-.04-4.1,.36-.81,.22-1.58,.43-2.3,.5-2.28,.22-6.49,.21-7.94,.21-.27,.46-.48,.94-.48,1.11Z"/>
  <polygon points="23.29 90.2 33.43 87.29 42.77 87.29 45.99 85.13 46 85.08 42.78 82.87 33.46 82.87 23.29 80.34 13.11 82.87 3.25 82.87 0 85.1 3.26 87.29 3.27 87.29 13.15 87.29 23.29 90.2"/>
  <path d="M181.98,67.32c.75,.91,1.45,1.86,2.1,2.85l26.22-14.25c-1.61-.95-3.15-1.95-4.55-2.99l-23.76,14.39Z"/>
  <path d="M174.21,60.23l20.07-26.28c-1.5-1.08-3.01-2.08-4.48-2.98l-18.8,27.3c1.11,.61,2.18,1.26,3.21,1.96Z"/>
  <path d="M220.88,72.65l-32.41,7.32c.26,.99,.48,2,.64,3.03,.63,0,1.27,0,1.93,.03l30.81-5.54c-.27-1.64-.59-3.26-.97-4.84Z"/>
  <path d="M119.66,61.1l3.9,3.44c.93-.92,1.91-1.79,2.94-2.62l-4.83-4.54c.37,.76,.78,1.52,1.23,2.29l.89,1.48-1.73-.16c-.76-.07-1.31,0-1.9,.06-.16,.02-.34,.03-.51,.05Z"/>
  <path d="M167.62,56.63l22.83-48c-1.73-.79-3.53-1.55-5.49-2.3l-21.2,48.88c1.32,.41,2.61,.89,3.86,1.42Z"/>
  <path d="M176.64,62.04c1.01,.82,1.98,1.68,2.89,2.58l20.28-17.89c-.9-1.44-1.61-2.95-2.13-4.5l-21.04,19.8Z"/>
  <path d="M227.61,56.24c2.1,1.13,4.03,2.24,5.64,3.33l4.19-1.51c-.62-1.65-1.3-3.29-2.03-4.9l-7.8,3.08Z"/>
  <path d="M217.98,60.04l-32.32,12.76c.59,1.09,1.11,2.21,1.57,3.36l36.55-13.18c-1.25-.65-2.58-1.32-3.94-2.01-.61-.31-1.24-.62-1.86-.94Z"/>
  <path d="M160.73,54.38l8.89-31.93c-1.84-.47-3.69-.88-5.51-1.2l-7.32,32.44c1.33,.17,2.65,.4,3.93,.7Z"/>
  <path d="M139.34,55.17L118.15,6.31c-1.83,.71-3.65,1.48-5.44,2.3l22.81,47.95c1.24-.53,2.51-.99,3.82-1.39Z"/>
  <path d="M112.16,31.68c.5,1.72,.52,3.42-.38,6.05l1.77,2.31c1.12,1.06,1.99,2.25,2.71,3.53l12.69,16.56c1.03-.69,2.09-1.34,3.19-1.94l-18.78-27.27c-.4,.24-.79,.5-1.19,.76Z"/>
  <path d="M151.49,53.34c.84,0,1.67,.03,2.49,.08L154.96,.07c-1.18-.05-2.35-.07-3.47-.07-.8,0-1.64,0-2.61,.05l.91,53.33c.56-.02,1.13-.04,1.7-.04Z"/>
  <path d="M215.49,25.47l-11.26,10.59c.16,1.87,.73,3.71,1.58,5.37l13.62-12.02c-1.28-1.36-2.6-2.68-3.95-3.95Z"/>
  <path d="M146.26,53.68l-7.23-32.42c-1.84,.32-3.67,.71-5.46,1.17l8.89,31.91c1.24-.28,2.51-.5,3.79-.66Z"/>
  <path d="M122.58,68.24c.2,.73,.41,1.5,.63,2.38l.42,1.63-1.29-.17c-1.02-.14-1.77-.1-2.48-.05-.13,.21-.25,.42-.37,.63,.76,.72,1.54,1.45,2.06,1.91,1.16,1.01,2.57,1.93,3.94,2.81,1.41,.91,2.87,1.84,4.11,2.93,.2,.17,.39,.37,.58,.57,3.52,1.43,6.8,3.36,9.72,6.14,5.16,.66,11.21,1.06,18.18,.98,6.9-.08,11.74-1.37,16.43-2.62,4.03-1.08,7.93-2.11,12.83-2.34-2.63-15.83-17.71-27.94-35.86-27.94-11.8,0-22.3,5.17-28.91,13.14Z"/>
  <path d="M220.38,181.05c.35,2.12,.98,4.42,1.68,5.24-2.77-.4-3.56-3-3.97-5.26-.6-.06-1.19-.16-1.77-.26h-2.82c.34,2.19,1,4.67,1.73,5.52-2.88-.41-3.61-3.21-4.02-5.52h-2.26c-.32,.11-.63,.23-.94,.34-.41,.15-.82,.3-1.22,.44,.36,1.97,.95,3.98,1.6,4.74-2.26-.33-3.2-2.13-3.7-4.01-1.49,.49-2.93,.91-4.32,1.16,.33,1.26,.74,2.34,1.18,2.85-1.69-.24-2.64-1.32-3.22-2.63-.19,0-.38,.03-.57,.03l.05,.05h0c-1.54,0-3.02-.3-4.45-1.02,.36,1.55,.84,2.97,1.35,3.57-2.58-.37-3.44-2.66-3.88-4.79-1.66,.5-3.24,.52-4.56,.03,.36,1.98,.95,4,1.6,4.76-2.88-.41-3.61-3.21-4.02-5.52h-4.55c.34,2.19,1,4.67,1.73,5.52-2.88-.41-3.61-3.21-4.02-5.52h-4.55c.34,2.19,1,4.67,1.73,5.52-2.88-.41-3.61-3.21-4.02-5.52h-2.04c-.78,.27-1.6,.38-2.44,.4,.35,2.09,.98,4.32,1.66,5.12-2.78-.4-3.56-3.02-3.98-5.28-.45-.07-.9-.15-1.34-.24h-3.25c.34,2.19,1,4.67,1.73,5.52-2.88-.41-3.61-3.21-4.02-5.52h-1.28c-.35,.13-.7,.25-1.05,.38-.69,.25-1.36,.49-2.03,.73,.37,1.86,.92,3.7,1.53,4.41-2.15-.31-3.1-1.95-3.61-3.71-1.5,.47-2.95,.84-4.36,1.02,.32,1.19,.72,2.21,1.14,2.7-1.68-.24-2.62-1.3-3.2-2.59-1.78-.04-3.48-.48-5.11-1.52,.37,1.76,.9,3.44,1.47,4.11-2.51-.36-3.39-2.54-3.85-4.63-1.75,.39-3.38,.2-4.66-.53,.35,2.1,.98,4.35,1.67,5.16-2.88-.41-3.61-3.21-4.02-5.52h-4.55c.34,2.19,1,4.67,1.73,5.52-2.88-.41-3.61-3.21-4.02-5.52h-4.55c.34,2.19,1,4.67,1.73,5.52-2.88-.41-3.61-3.21-4.02-5.52h-4.55c.34,2.19,1,4.67,1.73,5.52-2.88-.41-3.61-3.21-4.02-5.52h-4.55c.34,2.19,1,4.67,1.73,5.52-2.88-.41-3.61-3.21-4.02-5.52h-4.55c.34,2.19,1,4.67,1.73,5.52-2.88-.41-3.61-3.21-4.02-5.52h-4.55c.34,2.19,1,4.67,1.73,5.52-2.88-.41-3.61-3.21-4.02-5.52h-4.55c.34,2.19,1,4.67,1.73,5.52-2.88-.41-3.61-3.21-4.02-5.52h-4.55c.34,2.19,1,4.67,1.73,5.52-2.88-.41-3.61-3.21-4.02-5.52h-4.55c.34,2.19,1,4.67,1.73,5.52-2.88-.41-3.61-3.21-4.02-5.52h-4.55c.34,2.19,1,4.67,1.73,5.52-2.88-.41-3.61-3.21-4.02-5.52h-4.55c.34,2.19,1,4.67,1.73,5.52-2.75-.4-3.54-2.96-3.96-5.2-1.53,.41-3,.68-4.43,.72,.37,1.89,.93,3.77,1.55,4.49-2.53-.36-3.41-2.58-3.86-4.68-.85-.16-1.68-.43-2.49-.84h-2.22c.34,2.19,1,4.67,1.73,5.52-2.88-.41-3.61-3.21-4.02-5.52h-4.55c.34,2.19,1,4.67,1.73,5.52-2.88-.41-3.61-3.21-4.02-5.52h-4.55c.34,2.19,1,4.67,1.73,5.52-2.88-.41-3.61-3.21-4.02-5.52h-4.19v11.03H246.62v-11.03h-5.77c.34,2.19,1,4.67,1.73,5.52-2.88-.41-3.61-3.21-4.02-5.52h-4.55c.34,2.19,1,4.67,1.73,5.52-2.88-.41-3.61-3.21-4.02-5.52h-4.55c.34,2.19,1,4.67,1.73,5.52-2.88-.41-3.61-3.21-4.02-5.52h-3.06c-.47,.14-.95,.23-1.45,.28Z"/>
  <path d="M147.74,134.94c-.8,.31-1.62,.58-2.44,.87,2.49,4.62,8.37,9.35,15.72,10.52l1.28,.2-.66,1.11c-2.2,3.66-1.58,7.15-.99,10.52,.53,3.03,1.08,6.16-.63,9.06l-.31,.52-.6-.11c-.07-.01-7.07-1.26-10.64-1.42-3.83-.17-6.55,.11-8.09,.82-4,1.84-7.07,4.2-8.65,6.64-1.24,1.92-1.35,3.91-.27,5.2,1.01,1.21,2.8,1.55,4.81,.96-.21-.7-.42-1.55-.2-2.41,.54-2.15,2.5-3.57,4.13-4.68,1.42-.97,3.08-1.58,4.77-1.84,2.55-.4,6.88-.17,6.88-.17h.01c-3.32,1.51-6.84,.65-10.46,3.51-1.52,1.03-2.97,2.25-3.3,3.59-.09,.35-.01,1.15,.18,1.76,.04,.13,.08,.24,.12,.35,4.16,3.53,9.03,1.78,15.16-.45,.8-.29,1.63-.59,2.47-.89,1.6-.56,3.69-.12,5.54,.27,.2,.04,.4,.09,.6,.13,1.83,.38,3.93,.67,5.56,.04,3.84-1.49,6.75-5.76,9.71-14.29l.31-.88,3.94,1.65c-.26-2.21-1.27-4.24-3.23-6.57l-2-2.38,6.92,2.33c-.35-2.72-1.87-4.71-3.06-6.02l.95-1.41,3.58,1.32c-.11-.78-.22-1.83-.25-3.06-.02-.7,.03-1.51,.08-2.29,.07-1.08,.14-2.3-.02-2.86-.3-1.03-.67-1.72-1.02-2.38-.28-.53-.58-1.08-.81-1.77-.31-.89-.66-2.44-.82-3.19-6.52-2.99-10.43-8.13-11.31-14.87-.04-.31-.06-.61-.08-.92-.26,.2-.52,.41-.79,.64-3.44,2.91-7.22,5.5-11.28,7.79,.89,2.18,2.3,3.7,2.89,4.26-1.48-.54-3.49-1.58-4.71-3.25-.58,.31-1.18,.6-1.78,.89,.83,2.65,2.54,4.5,3.2,5.13-1.72-.63-4.18-1.95-5.26-4.15-.36,.17-.73,.33-1.1,.5,.44,3.6,2.79,6.15,3.59,6.91-2.01-.74-5.02-2.39-5.68-5.31l.42-.88c-.79,.33-1.58,.66-2.38,.96Zm21.04,1.63c.82,3.2,5.95,4.69,9.87,3.5,0,0,0,0,0,0h.01s0,0-.01,0c-.51,2.91-5.26,2.83-7.31,2.09-2.06-.73-3.59-3.24-2.56-5.59Zm-.76,7.15c.82,3.2,5.95,4.69,9.87,3.5,0,0,0,0,0,0h.01s0,0-.01,0c-.51,2.91-5.26,2.83-7.31,2.09-2.06-.73-3.59-3.24-2.56-5.59Zm4.1,10.7c1.03,2.43,.71,5.43-.2,8.29-.91,2.85-3.51,5.2-5.04,7.26h0s-.01,0-.01,0c-.72-.56,3.29-14.7,5.25-15.55Z"/>
  <polygon points="177.89 147.22 177.89 147.22 177.9 147.22 177.89 147.22"/>
  <polygon points="178.65 140.07 178.65 140.07 178.66 140.07 178.65 140.07"/>
  <path d="M258.4,15.82h-.1c-1.77,.02-4.21,.74-5.81,4.01l-.63,1.3-.86-1.16c-1.73-2.35-4.32-3.41-7.1-2.9-2.39,.44-4.47,1.97-5.53,3.97,4.62-.45,9.06,1.44,12.12,5.22l.13,.16,.04,.2c.85,3.88-.58,7.33-3.65,8.79-3.44,1.64-6.97,.95-10.49-2.05-1.97-1.68-3.59-3.62-5.16-5.5-1.48-1.77-2.89-3.45-4.47-4.78-4.45-3.74-9.6-4.27-13.15-4.06-4.1,.25-7.87,1.91-10.63,4.68-2.72,2.73-4.39,6.49-4.7,10.6-.34,4.43,.91,8.79,3.6,12.6,3.47,4.91,11.53,8.95,18.64,12.52,3.93,1.97,7.64,3.84,9.98,5.59,5.78,4.33,8.49,7.33,9.66,10.7,.99,2.86,1.76,7.21-.21,11.67-2.1,4.76-7.01,7.15-15.01,7.31-5.6,.1-10.96-2.45-16.16-4.92-4.19-1.99-8.14-3.87-12.17-4.46-9.79-1.44-15.6,.11-21.76,1.76-4.79,1.28-9.74,2.6-16.86,2.68-4.6,.05-10.27-.09-16.31-.75,1.23,1.41,2.39,3,3.45,4.81l.48,.82-.86,.41c-2.78,1.33-6.7,1.4-10.92,.22,.49,2.39,.76,4.92,.22,7.48l-.14,.68-.69,.02c-.75,.02-1.43-.02-2.08-.1,1.92,4.06,2.31,8.55,.98,12.99l-.19,.62h-.65c-2.44,0-3.47-.42-4.78-.95-.16-.06-.32-.13-.49-.2,.42,3.07,.35,5.64-.21,8.56l-.15,.76-.78-.06c-1.55-.12-3.81-.58-6.29-2.04-.29,2.47-1.26,5.01-2.64,6.81l-.33,.43-.53-.1c-1.62-.3-3.21-1.29-4.6-2.83-.04,.22-.08,.44-.12,.67-.37,2.21-.84,4.95-3.16,7.28l-.45,.45-.57-.29c-2.65-1.35-4.61-2.69-6.16-4.96-.55,1.98-1.13,3.75-3.55,6.17l-.45,.45-.57-.29c-2.68-1.37-4.58-3.46-5.91-5.17-.85,3.01-2.48,5.22-5.03,6.87l-.47,.31h0s.01,0,.01,0h0s-.02,0-.02,0h0s-.45-.3-.45-.3c-2.57-1.66-4.21-3.89-5.05-6.94-1.67,1.92-3.65,3.47-5.89,4.62l-.57,.29-.45-.45c-.41-.41-.74-.83-1.04-1.26,.83,4.2,3.51,8.2,7.57,11.06l1.12,.79-1.19,.68c-2.88,1.65-6,5.2-7.43,8.45-1.76,4-3.25,6.61-5.51,9.62l-.32,.43-.53-.09c-.07-.01-7.05-1.25-10.62-1.41-3.77-.17-6.58,.12-8.13,.84-3.99,1.84-7.05,4.19-8.62,6.62-1.24,1.92-1.35,3.91-.28,5.19,1.07,1.27,3.01,1.56,5.16,.83-.21-.7-.4-1.54-.19-2.38,.54-2.15,2.5-3.57,4.13-4.68,1.42-.97,3.08-1.58,4.77-1.84,2.55-.4,6.88-.17,6.88-.17h.01c-3.32,1.51-6.84,.65-10.46,3.51-1.52,1.03-2.97,2.25-3.3,3.59-.09,.35-.01,1.15,.18,1.76,.12,.39,.26,.7,.36,.89,4.06,2.93,8.8,1.23,14.68-.9,.77-.28,1.56-.56,2.36-.84,1.62-.56,3.73-.12,5.6,.27,.19,.04,.37,.08,.55,.11,1.83,.38,3.93,.72,5.55,.05,2.69-1.11,4.4-3.43,6.21-5.88,.89-1.2,1.81-2.44,2.85-3.53,1.43-1.5,4.27-4.56,4.3-4.59l.69-.75,2.67,3.38c1.02-2.06,1.26-4.31,.81-7.26l-.42-2.79,4.68,5.03c1.18-2.47,.96-4.86,.6-6.72l-.6-3.14,4.57,5.18c.32-.72,.8-1.7,1.45-2.82,.36-.61,.84-1.29,1.3-1.95,.65-.92,1.39-1.97,1.55-2.53,.53-1.86,.7-4.31,.7-4.33l.12-1.76,1.33,1.16c1.65,1.44,2.84,2.17,4.6,2.11,.32-3.01,.62-4.23,1.62-5.77l.17-.27c-1.67-1.71-2.09-4.12-2.11-5.75,.49,.93,2.17,3.73,5.52,5.44,1.88-.13,3.73-.28,5.53-.47-2.94-2.08-4.81-6.27-4.62-7.95,.55,1.07,3.29,5.69,8.37,7.49,1.8-.24,3.57-.52,5.3-.83-3.93-1.98-9.91-8.93-9.46-11.93,.44,2.09,7.84,9.42,13.31,11.15,2-.44,3.95-.92,5.84-1.47-4.79-1.73-12.25-7.24-11.92-10.85,1.59,3.6,9.52,8.89,15.82,9.64,1.1-.37,2.19-.75,3.26-1.16,.8-.3,1.58-.63,2.36-.95-5.22-1.02-16.19-7.83-16.88-12.39h0c2.65,4.59,13.28,10.49,21,10.54,1.3-.63,2.57-1.3,3.81-1.99-5.93-1.06-20.8-9.7-20.61-13.52,0,0,0,0,0,0h0s0,0,0,0c.15,2.3,15.47,11.42,23.66,11.73,1.2-.75,2.39-1.52,3.53-2.33-5.04-.06-17.97-5.93-19.26-10.56h.01c3.74,4.26,15.13,8.91,22.05,8.47,.65-.51,1.3-1.02,1.92-1.56,.67-.57,1.28-1.02,1.87-1.47,.93-.7,1.8-1.35,2.75-2.32,2.04-2.09,9.1-.97,12.3,.21,1.76,.65,3.73,3.01,3.95,3.27l.09,.11,.09,.22c2.61,6.65,8.72,22.21,25.29,25.53l1.21,.24-.64,1.06c-2.2,3.66-1.59,7.17-1,10.56,.53,3.04,1.07,6.18-.64,9.08l-.31,.53-.6-.11c-.07-.01-7.04-1.33-10.61-1.49-3.71-.16-6.49,.13-8.04,.84-4.07,1.88-7.17,4.23-8.72,6.62-1.25,1.93-1.35,3.95-.26,5.26,1.01,1.21,2.79,1.55,4.78,.98-.22-.72-.47-1.64-.25-2.56,.54-2.15,2.5-3.57,4.13-4.68,1.42-.97,3.08-1.58,4.77-1.84,2.55-.4,6.88-.17,6.88-.17h.01c-3.32,1.51-6.84,.65-10.46,3.51-1.52,1.03-2.97,2.25-3.3,3.59-.09,.35-.01,1.15,.18,1.76,.06,.2,.13,.37,.19,.52,4.15,3.54,9.01,1.8,15.12-.42,.82-.3,1.67-.61,2.53-.91,1.62-.56,3.74-.12,5.6,.27,.19,.04,.37,.08,.55,.11,1.83,.38,3.93,.67,5.57,.04,3.85-1.49,6.86-5.89,9.77-14.27l.3-.87,3.89,1.58c-.33-2.77-1.78-4.85-3.21-6.55l-2-2.38,6.95,2.33c-.35-2.71-1.89-4.71-3.09-6.03l.95-1.41,3.6,1.31c-.12-.79-.24-1.83-.27-3.05-.02-.69,.02-1.49,.07-2.26,.06-1.08,.13-2.31-.03-2.87-.3-1.03-.67-1.72-1.02-2.38-.28-.53-.57-1.08-.81-1.76-.31-.9-.63-2.44-.77-3.19-7.41-3.57-11.07-9.39-11.2-17.81-.08-5.36-.63-9.17-2.9-12.68-4.54-4.24-12.81-9.52-16.1-10.23h-.01c3.88-.68,8.17,1.76,12.35,3.29,1.81,.66,3.48,.69,4.59,.87,.03,0,.06,0,.08,0,.53,.03,1.03,.05,1.5,.05,10.34,.12,18.98-4.63,21.54-11.8,1.76-4.95,1.64-10.22-.32-14.1-3.01-5.95-6.12-8.44-12.3-13.07-2.7-2.02-6.78-4.13-11.11-6.37-6.81-3.52-13.85-7.16-16.6-11.05-5.03-7.11-3.3-14.29,.64-18.26,3.88-3.9,10.58-6.05,17.77-.41,2.23,1.76,3.96,3.86,5.62,5.9,1.37,1.68,2.67,3.26,4.12,4.48,3.99,3.34,10.27,5.38,15.33,2.42,4.62-2.7,6.51-6.69,5.77-12.21l-.02-.18,.05-.17c1.13-4.08,4.72-6.8,9.73-7.48-1.37-1.4-3.77-2.6-6.17-2.6ZM78.63,163.45c-1.96,2.38-5.31,3.75-7.53,5.18-.46-.76,8.76-12.71,10.92-12.87,.03,2.6-1.43,5.31-3.39,7.69Zm5.13-22.15s0,0,0,0c3.92,1.18,9.05-.31,9.87-3.5,1.03,2.35-.5,4.86-2.56,5.59-2.05,.74-6.8,.82-7.31-2.09,0,0,0,0-.01,0h.01Zm7.43,8.86c-2.05,.74-6.8,.82-7.31-2.09,0,0,0,0-.01,0h.01s0,0,0,0c3.92,1.18,9.05-.31,9.87-3.5,1.03,2.35-.5,4.86-2.56,5.59Zm101.75-34.17h0c-2.21-3.17-7.23-4.98-10.08-2.96,.83-2.42,3.75-3.48,5.86-2.87,2.11,.62,5.85,3.28,4.23,5.83Zm29.6,41.72c-.38,2.95-2.52,5.66-3.66,7.92h-.01c-.81-.44,.59-14.99,2.37-16.12,1.45,2.24,1.68,5.25,1.3,8.2Zm-16.49-23.16c3.91,3.42,12.62,6.28,15.23,10.11-7.54-1.66-13.31-4.29-17.43-8.36s-6.45-9.54-7.43-16.63c3.35,2.42,4.35,10.26,9.63,14.88Z"/>
  <polygon points="83.87 148.07 83.88 148.07 83.88 148.07 83.87 148.07"/>
  <polygon points="83.76 141.3 83.75 141.3 83.76 141.3 83.76 141.3"/>
  <path d="M136.77,114.93s0,0,0,0c0,0,0,0,0-.01h0Z"/>
  <path d="M125.89,101.2c.02,3.19-1.14,7.07-1.81,7.68l-.27,.25-.37-.02c-2.13-.12-4.59-1.46-6.49-2.87-.1,2.55-.22,5.19-2.07,7.87l-.38,.55-.63-.22c-1.65-.58-3.98-1.4-6.08-3.86-.39,2.64-1.29,4.71-3.19,7.63l-.35,.54-.62-.18c-2.33-.68-4.25-2.68-5.94-4.44-.13-.13-.25-.26-.37-.39-.39,2.76-1.53,5.46-3.51,8.37l-.44,.64h.02s0,.01,0,.01h-.02s-.68-.38-.68-.38c-2.34-1.28-4.36-3.76-6-7.39-1.03,2.34-2.97,5.7-6.06,7.39l-.7,.38-.45-.65c-1.98-2.91-3.12-5.61-3.51-8.37-.12,.13-.25,.26-.37,.39-1.69,1.76-3.6,3.76-5.94,4.44l-.62,.18-.35-.54c-1.9-2.92-2.8-4.99-3.19-7.63-1.12,1.32-2.3,2.16-3.42,2.75-.98,5.46-.3,10.78,2.03,15.56,1.06-.62,2.17-1.56,3.26-2.54,1.02-2.33,2-5.27,2.53-6.91-.12,1.71,.02,5.31,.33,8.55,.03,.17,.06,.32,.09,.49,.34,1.99,.69,4.04,2.24,5.86,1.78-.99,3.36-2.29,4.73-3.86,1.07-2.37,2.1-5.48,2.66-7.19-.1,1.43-.02,4.19,.19,6.94,.61,2.88,1.9,4.98,4.05,6.52,1.74-1.25,2.93-2.87,3.64-4.98,.34-3.59,.5-8.92,.37-10.69,.61,1.87,1.79,6.88,2.96,9.62,1.12,1.43,2.65,3.1,4.68,4.29,1.76-1.9,2.19-3.27,2.68-5.04,.3-3.55,.43-8.37,.31-10.04,.66,2.01,1.97,7.64,3.23,10.2,1.05,1.34,2.41,2.39,4.49,3.51,1.56-1.82,1.9-3.87,2.24-5.87,0-.02,0-.03,0-.05,.23-3.68-.42-9.81-.54-11.61,.61,1.87,2.54,7.47,3.87,10.34,.91,.95,1.89,1.62,2.88,1.92,.89-1.32,1.54-3.04,1.84-4.76,.22-3.52-.3-8.42-.42-10.19,.59,1.79,1.99,6.03,4.36,8.78,1.34,.62,2.56,.94,3.55,1.08,.31-1.9,.36-3.54,.26-5.13l-.04,.08c-.07-3.53-2.15-6.7-2.56-8.61,.76,1.57,2.74,3.31,5.61,4.93,.91,.36,1.68,.61,3.13,.67,1.1-4.27,.45-8.56-1.75-12.39-1.15-.4-2.15-.96-3.1-1.61Z"/>
  <polygon points="84.19 138.82 84.17 138.82 84.19 138.83 84.19 138.82"/>
  <polygon points="84.17 138.82 84.17 138.82 84.17 138.82 84.17 138.82"/>
  <path d="M132.27,83.82c.55,.96,.89,1.7,.92,1.77l.43,.96-1.02,.25c-2.02,.49-4.36,.35-6.41,.06,.72,1.9,1.31,3.81,1.19,6.22l-.03,.67-.65,.14c-2.33,.51-4.71,.06-7.23-1.38,.27,2.31,.17,4.24-.31,6.1l-.22,.87-.86-.24c-2.06-.57-4.34-1.21-6.64-3.04-.06,1.77-.41,3.69-1.61,5.88l-.36,.66-.7-.26c-2.28-.83-4.28-2.14-6.22-4.08-.44,1.66-1.06,3.85-2.74,5.59l-.43,.44-.56-.26c-2.07-.95-3.62-2.79-4.71-4.57-.55,1.77-1.24,3.76-4.12,5.65l-.57,.38,.02,.02h0s0,0,0,0h-.06l.04-.02-.47-.51c-2.08-2.22-3.16-4-3.79-5.49-1,1.61-2.27,3.34-5.33,4.58l-.64,.26-.4-.56c-2.08-2.88-2.6-4.83-3.08-6.71-1.46,1.1-3.12,2.04-4.73,2.96l-1,.57-.43-.77c-.96-1.73-1.86-3.67-2.14-6.22-1.87,1.59-3.82,2.67-5.82,3.2l-.78,.21-.27-.75c-.76-2.11-.82-4.48-.68-6.58-1.53,.95-3.12,1.94-5.6,2.89-.93,1.97-1.71,3.87-2.07,5.36-.62,2.57-.72,6.28-.73,7.99,1.32-.14,2.69-.51,4.07-1.44,1.68-2.07,3.54-4.89,4.55-6.44-.58,1.65-1.43,5.25-1.99,8.48,.09,2.03,.24,3.98,1.39,5.91,1.56-.57,3.33-1.4,4.94-3.45,1.49-2.71,3.21-6.91,4-8.53-.33,1.55-.96,6.02-1.22,9.53,.31,2.31,1.02,4.1,2.57,6.56,1.64-.71,3.12-2.25,4.56-3.75,.33-.35,.66-.68,.98-1.01,1.2-2.29,2.36-5.13,3.06-6.57-.32,1.5-.56,4.93-.69,8.04,.3,2.32,1.19,4.57,2.77,7.04,1.13-.79,3.06-2.55,4.57-5.98,.75-3.33,1.53-7.49,1.61-9.18,.43,2.14,1.02,7.28,2.02,9.78,1.23,2.49,2.64,4.29,4.2,5.37,1.49-2.33,2.36-4.45,2.72-6.62-.11-3.33-.37-7.31-.73-8.97,.8,1.65,2.2,5.11,3.57,7.51,.19,.19,.37,.38,.56,.58,1.44,1.5,2.92,3.05,4.56,3.75,1.62-2.58,2.33-4.42,2.61-6.88-.13-3.12-.37-6.55-.69-8.06,.82,1.68,2.26,5.26,3.66,7.66,1.55,1.85,3.23,2.63,4.71,3.17,1.23-2.09,1.32-4.2,1.41-6.42,.02-.47,.04-.96,.08-1.45-.46-2.33-.95-4.53-1.35-5.63,.74,1.13,1.93,3.19,3.17,5.08,1.93,1.64,4.22,2.87,5.9,3.17,.47-1.17,1.33-4.41,1.11-6.84-1.01-2.6-2.11-5.19-2.8-6.37,.99,1.04,2.66,3.02,4.32,4.75,2.33,1.81,4.16,2.79,6.95,2.86,.35-2.42-.05-4.86-.58-7.17-1.19-2.58-2.47-5.18-3.24-6.34,.78,1.43,3.96,4.17,7.14,5.77,2.78,.58,5.31,.55,7.3-.11-3.02-4.77-6.76-7.87-10.96-10.04Z"/>
  <polygon points="93.39 122.76 93.39 122.76 93.37 122.75 93.36 122.76 93.39 122.76"/>
  <path d="M48.18,83.85c1.29-.13,2.6-.46,3.96-.82,2.9-1.75,5.55-5.37,8.47-7.43,0,0,0,0,0-.01h0s0,.01,0,.01c-1.37,4.53-4.81,4.19-6.51,10.86l-.02-.19c-.21,1.32-.21,2.71,.16,4.63,1.97-.81,3.29-1.62,4.68-2.48,2.79-2.81,5.47-9.04,8.02-11.47h.01c-.57,4.22-4.15,7.25-5.3,12.79-.13,1.71-.13,3.61,.31,5.32,1.21-.42,2.38-1.07,3.54-1.95,2.48-2.3,3.51-6.7,5.75-9.73h0c.22,3.9-1.85,4.76-2.16,8.84,.03,2.55,.72,4.48,1.58,6.16,1.55-.88,3.09-1.82,4.4-2.86,.93-2.46,1.2-5.53,2.51-8.04h0c.88,3.92-.82,4.77-.25,9.02,.02,.09,.05,.18,.07,.27,.43,1.68,.85,3.27,2.41,5.59,2.36-1.12,3.25-2.57,4.18-4.1,.04-.06,.08-.12,.12-.19,.82-2.14,.46-4.51,1.64-7.33h0s.01,.01,.01,.01c1.34,4.27-.47,3.48,1.3,8.83,.53,1.08,1.33,2.3,2.65,3.79,1.94-1.47,2.37-2.87,2.86-4.48,.02-.05,.03-.1,.05-.15,1.06-4.96-1.81-6.6-.54-10.66h0c1.25,2.95,1.83,7.09,3.23,9.99,.8,1.42,2.05,3.2,3.74,4.21,1.1-1.39,1.55-3.1,1.92-4.5,0,0,0-.01,0-.02,.54-5.41-2.86-8.81-1.93-12.94h0c1.55,2.98,2.89,8.95,4.79,12.32,1.56,1.56,3.11,2.66,4.88,3.41,.51-1.07,.78-2.06,.92-3.02l-.04,.07c1.03-6.78-4.29-10.05-4.13-13.96h0c2.17,2.02,4.63,7.9,7.05,11.11,1.76,1.42,3.51,2.06,5.22,2.56,.27-1.54,.26-3.22-.02-5.2-1.69-5.28-7.99-10.2-8.12-13.67h0c2.42,1.96,7.18,8.75,10.85,12.57,1.87,1.05,3.62,1.48,5.29,1.29-.03-1.86-.55-3.39-1.18-5.05-2.21-4.33-7.07-5.77-7.89-9.14,5.18,3.93,5.87,4.94,10.35,7.09,1.37,.17,2.83,.27,4.17,.11-.56-1.06-1.55-2.71-2.64-3.67-1.15-1-2.55-1.9-3.91-2.78-1.42-.92-2.9-1.86-4.15-2.96-1.39-1.22-4.41-4.16-4.54-4.29l.84-1.47c1.13,.31,1.86,.25,2.8,.18,.53-.04,1.11-.08,1.8-.06-1.2-4.63-1.84-6.39-6.12-9.71l.76-1.54c2.1,.55,3.04,.44,4.03,.33,.22-.03,.44-.05,.68-.07-1.52-2.85-2.46-5.69-3.3-8.25-1.58-4.78-2.94-8.9-7.36-11.44l-.67-.38,.29-.71c1.81-4.38,1.22-5.73-.21-8.99-.31-.71-.66-1.51-1.03-2.44-.36-.91-.4-2.34-.38-3.36-2.16,.53-5.78,1.68-7.24,3.33-1.32,1.48-3,3.6-3.02,3.62l-2.1,2.64,.56-3.33c.43-2.54,.29-3.7-1.48-5.25-.29,.46-.6,1.01-.92,1.59-.77,1.38-1.56,2.8-2.46,3.61l-1.2,1.09-.26-1.6c-.39-2.42-.88-4.57-2.79-6.21-1.89,1.83-2.79,3.74-2.87,6.1l-.07,1.88-1.39-1.27c-.89-.81-1.69-2.24-2.46-3.61-.32-.57-.63-1.12-.92-1.59-1.77,1.55-1.91,2.71-1.48,5.25l.56,3.33-2.1-2.64s-1.7-2.13-3.02-3.62c-1.47-1.66-5.14-2.82-7.3-3.34-.01,.97-.07,2.37-.28,3.26-.21,.88-.62,1.79-1.05,2.74-1.19,2.66-2.43,5.41-.31,8.67l.48,.74-.75,.47c-5.52,3.5-6.79,7.7-8.25,12.57-.77,2.55-1.56,5.18-3,7.91,.29,.04,.55,.09,.81,.14,.93,.18,1.8,.35,3.81-.18l.76,1.54c-4.25,3.3-4.86,4.1-5.99,8.29,.42-.05,.84-.08,1.3-.1,1.06-.06,2.26-.13,4-.58l1.79-.46-.78,1.67c-1.1,2.35-3.28,4.13-4.73,5.32-.22,.18-.42,.34-.6,.5-2.63,2.21-4.17,4.49-5.16,7.66Zm51.8-51.28c.99-2.44,6.15-5.43,6.15-5.43h.01s-.11,1.95,.18,2.93c.56,1.89,1.45,3.47,1.56,5.43,.07,1.33-1.38,3.84-1.38,3.84,0,0-.94-3.08-2.48-3.68-1.53-.59-4.68,.84-4.68,.84,0,0,.2-2.84,.64-3.93Zm-32.29-2.5c.29-.99,.09-2.93,.09-2.93h.01s5.17,2.99,6.15,5.43c.44,1.09,.64,3.93,.64,3.93,0,0-3.15-1.44-4.68-.84-1.54,.6-2.48,3.68-2.48,3.68,0,0-1.45-2.51-1.38-3.84,.11-1.95,1.09-3.54,1.65-5.43Zm-2.2,25.99c.34-1.18,1.24-2.13,2.02-2.84,.1-.1,.08-.08,.18-.17-1.98-.74-3.48-1.99-3.95-3.59-.61-2.06,.18-4.41,2.43-5.82,0,0,0-.02,0-.02h.03s0,0,.01-.01h0s-.01,.01-.01,.01c-.01,0-.02,.02-.03,.02-.64,1.83-1.11,3.28-.54,5.41,.37,1.36,1.68,2.54,4.04,2.84l2.57,.33-2.11,1.34s-.53,.39-1.19,1c-.66,.61-1.41,1.46-1.56,2.01-1.26,4.45,0,8.22,2.66,10.87,2.66,2.65,6.9,4.62,11.65,3.84,3.08-.51,3.59-1.05,3.39-3.93-.62-.07-1.39-.23-2.11-.59-.65-.33-.92-.67-1.19-1-.27-.33-.49-.57-.55-.59-.86-.37-2.2-.25-2.2-.25l-1.1,.25-.09-1.09c-.07-.95-.3-1.55,.46-3.09,.61-1.25,1.55-2,2.2-2.42,.32-.21,.51-.31,.64-.42s.16-.16,.18-.25c.85-3.13,1.11-5.84,.28-8.45-.49-1.57-2.2-2.89-4.4-3.18-2.38-.31-5.27,.35-6.61,.59,1.32-1.5,3.89-2.95,7.16-2.42,2.67,.43,5.1,2.09,5.87,4.51,.95,2.99,.59,6.15-.28,9.37-.13,.49-.41,.9-.73,1.17s-.64,.49-.92,.67c-.56,.37-1.12,.7-1.56,1.59-.37,.76-.23,.74-.18,1.41,.66-.05,1.06-.53,2.11-.08,.7,.3,1.08,.81,1.38,1.17,.3,.37,.57,.64,.46,.59,.29,.14,.89,.28,1.38,.33,.49,.05,.92,0,.92,0,0,0,.43,.05,.92,0s1.09-.19,1.38-.33c-.11,.05,.16-.23,.46-.59s.69-.87,1.38-1.17c1.05-.45,1.45,.03,2.11,.08,.05-.67,.2-.64-.18-1.41-.44-.89-1-1.22-1.56-1.59-.28-.19-.61-.4-.92-.67s-.6-.68-.73-1.17c-.88-3.23-1.23-6.38-.28-9.37,.77-2.42,3.19-4.08,5.87-4.51,3.27-.53,5.84,.92,7.16,2.42-1.34-.24-4.23-.9-6.61-.59-2.2,.3-3.9,1.62-4.4,3.18-.83,2.61-.57,5.32,.28,8.45,.02,.09,.05,.14,.18,.25,.13,.11,.32,.21,.64,.42,.65,.42,1.58,1.17,2.2,2.42,.76,1.54,.53,2.15,.46,3.09l-.09,1.09-1.1-.25s-1.34-.12-2.2,.25c-.06,.03-.28,.26-.55,.59-.27,.32-.53,.67-1.19,1-.72,.37-1.49,.53-2.11,.59,0,2.72,.08,3.47,3.39,3.93,4.77,.66,8.99-1.18,11.65-3.84s3.92-6.43,2.66-10.87c-.15-.55-.9-1.41-1.56-2.01-.66-.6-1.19-1-1.19-1l-2.11-1.34,2.57-.33c2.36-.29,3.68-1.48,4.04-2.84,.57-2.13,.1-3.59-.55-5.43,2.29,1.4,3.1,3.77,2.48,5.85-.48,1.6-1.98,2.84-3.95,3.59,.1,.09,.08,.08,.18,.17,.78,.71,1.68,1.65,2.02,2.84,1.36,4.82,.49,9.5-2.39,12.62,2,1.9,7.85,8.89,9.73,11.53-3.22-1.89-8.51-8.04-11.1-10.2-1.68,1.28-3.84,2.1-6.15,2.59,2.25,2.07,7.13,6.96,8.9,9.45-2.98-1.75-7.45-5.71-10.18-7.94,.2,1.63-.18,3.29-1.28,4.6-.2,.25-.48,.44-.73,.67,.88,2.05,2.51,8.33,3.03,11.53-2.01-2.85-3.47-7.63-4.77-10.36-.81,.42-1.72,.78-2.75,1,.29,2.71,.4,8,.18,10.87-1.23-3.04-1.62-7.66-2.2-10.62-.34,.02-.65,.08-1.01,.08-.62,0-1.17-.11-1.74-.17-.83,2.9-1.62,7.61-3.12,10.62,0-2.93,.59-8.41,1.1-11.03-1.35-.37-2.47-.93-3.39-1.67-1.59,2.62-3.6,6.96-5.87,9.53,.88-3.09,3.26-9,4.4-11.03-1.04-1.58-1.27-3.47-.64-5.27-.85-.12-1.69-.21-2.48-.42-1.61,2.52-3.74,7.41-6.15,10.2,.83-3.05,3.09-8.72,4.22-10.87-1.1-.44-2.13-.94-3.03-1.59-2.03,2.36-4.77,6.27-7.43,8.44,1.32-2.73,4.35-7.54,5.96-9.7-3.05-3.12-3.97-7.93-2.57-12.87Zm8.17-6.95c1.1-.49,2.05-.75,2.84-.75h0s.01-.01,.01-.01c2.38-.02,3.55,1.79,4.22,3.43-4.22,2.29-6.69-.54-7.07-2.67Zm18.07,2.68c.67-1.64,1.84-3.45,4.22-3.43h0s.01,0,.01,0c.79,.01,1.74,.26,2.84,.75-.38,2.13-2.85,4.95-7.07,2.67Z"/>
  <path d="M86.22,79.28c3.28,0,5.44-1.02,6.61-2.42,1.06-1.27,1.3-2.31,.64-3.76-.98,.04-1.95,0-2.94-.08-1.14-.09-2.2-.44-3.12-.84-.66-.29-.92-.44-1.19-.59-.26,.15-.53,.3-1.19,.59-.92,.41-1.98,.75-3.12,.84-1,.08-1.97,.12-2.94,.08-.67,1.45-.51,2.49,.55,3.76,1.17,1.39,3.42,2.42,6.7,2.42Z"/>
  <polygon points="89.44 105.65 89.42 105.63 89.38 105.65 89.44 105.65"/>
  <polygon points="89.45 105.65 89.44 105.65 89.45 105.66 89.45 105.65"/>
  <path d="M60.62,75.59s0,0,0,.01c0,0,0,0,0,0h0Z"/>
  <path d="M66.22,43.61s0,0-.01,.01h.01Z"/>
  <path d="M66.18,43.62s0,.02,0,.02c.01,0,.02-.02,.03-.02h-.03Z"/>
</svg>